{"title":"The Pirates Band of Misfits 2012 Arabic 1080p X264-alrmothe Ù…Ø¯Ø¨","uid":7615778,"size":4649996896,"categoryP":"video","categoryS":"hd___movies","magnet":"?xt=urn:btih:8fe74dcbb90d2d1c1ed758183645ca6c9c391918&amp;dn=+The+Pirates+Band+of+Misfits+2012+Arabic+1080p+X264-alrmothe+%D9%85%D8%AF%D8%A8&amp;tr=udp%3A%2F%2Ftracker.openbittorrent.com%3A80&amp;tr=udp%3A%2F%2Fopen.demonii.com%3A1337&amp;tr=udp%3A%2F%2Ftracker.coppersurfer.tk%3A6969&amp;tr=udp%3A%2F%2Fexodus.desync.com%3A6969","seeders":1,"leechers":0,"uploader":".alrmothe","files":19,"time":1347151106,"description":"[color=green]Movies : Animation : HD1080p :Arabic[/color]\n\n \n\n\n[img]http://img528.imageshack.us/img528/4756/theju.jpg[/img]\n\n\n\n\n\n[img]http://img219.imageshack.us/img219/462/imdbt.png[/img]\n[color=red]IMDB:[/color] &lt;a href=&quot;\nhttp://www.imdb.com/title/tt1430626/&quot; rel=&quot;nofollow&quot; target=&quot;_NEW&quot;&gt;\nhttp://www.imdb.com/title/tt1430626/&lt;/a&gt;\n[color=green]Genre:[/color]Animation | Adventure | Comedy\n[color='ff0000']Source:[/color]Blu-ray Disc \n[color=red]Language:[/color]Arabic\nFile size  : 4.32 GiB\nDuration : 01:28:05\n[color=green]Encoder:[/color]alrmothe\n\n[img]http://i.imgur.com/fXeWi.png[/img]\n[img]http://img251.imageshack.us/img251/2539/general3y.png[/img]\n[color=red]Video Information[/color]\nFormat :Matroska\nFormat : AVC\nFormat profile : &lt;a class=&quot;__cf_email__&quot; href=&quot;/cdn-cgi/l/email-protection&quot; data-cfemail=&quot;7e361719163e324a504e&quot;&gt;[email&amp;#160;protected]&lt;/a&gt;&lt;script cf-hash='f9e31' type=&quot;text/javascript&quot;&gt;\n/* &lt;![CDATA[ */!function(){try{var t=&quot;currentScript&quot;in document?document.currentScript:function(){for(var t=document.getElementsByTagName(&quot;script&quot;),e=t.length;e--;)if(t[e].getAttribute(&quot;cf-hash&quot;))return t[e]}();if(t&amp;&amp;t.previousSibling){var e,r,n,i,c=t.previousSibling,a=c.getAttribute(&quot;data-cfemail&quot;);if(a){for(e=&quot;&quot;,r=parseInt(a.substr(0,2),16),n=2;a.length-n;n+=2)i=parseInt(a.substr(n,2),16)^r,e+=String.fromCharCode(i);e=document.createTextNode(e),c.parentNode.replaceChild(e,c)}}}catch(u){}}();/* ]]&gt; */&lt;/script&gt;\nVideo Bit rate : 6374 Kbps\nFrame Rate: 23.976 fps\nBit depth : 8 bits\nScan type : Progressive\nBits/(Pixel*Frame): 0.170\nStream size : 3.84 GiB (89%)\n[color=green]Resolution:1920x816[/color]\n\n\n[color=navy]Audio Information:[/color]\nFormat : AC-3\nBit rate mode : Constant\nBit rate : 640 Kbps\nChannel(s) : 6 channels\nChannel positions:Front: L C R, Side:L R,LFE\nSampling rate : 48.0 KHz\nBit depth : 16 bits\nCompression mode : Lossy\nStream size : 403 MiB (9%)\n\n\n[color=red]Screenshots[/color]\n &lt;a href=&quot;\nhttp://img685.imageshack.us/img685/6899/98877895.png&quot; rel=&quot;nofollow&quot; target=&quot;_NEW&quot;&gt;\nhttp://img685.imageshack.us/img685/6899/98877895.png&lt;/a&gt;\n &lt;a href=&quot;\nhttp://img171.imageshack.us/img171/4057/36879474.png&quot; rel=&quot;nofollow&quot; target=&quot;_NEW&quot;&gt;\nhttp://img171.imageshack.us/img171/4057/36879474.png&lt;/a&gt;\n &lt;a href=&quot;\nhttp://img546.imageshack.us/img546/4069/25654342.png&quot; rel=&quot;nofollow&quot; target=&quot;_NEW&quot;&gt;\nhttp://img546.imageshack.us/img546/4069/25654342.png&lt;/a&gt;\n &lt;a href=&quot;\nhttp://img513.imageshack.us/img513/2221/52479733.png&quot; rel=&quot;nofollow&quot; target=&quot;_NEW&quot;&gt;\nhttp://img513.imageshack.us/img513/2221/52479733.png&lt;/a&gt;\n &lt;a href=&quot;\nhttp://img88.imageshack.us/img88/3858/80732833.png&quot; rel=&quot;nofollow&quot; target=&quot;_NEW&quot;&gt;\nhttp://img88.imageshack.us/img88/3858/80732833.png&lt;/a&gt;\n\n &lt;a href=&quot;\nhttp://img819.imageshack.us/img819/1939/thepiratesbandofmisfitse.png&quot; rel=&quot;nofollow&quot; target=&quot;_NEW&quot;&gt;\nhttp://img819.imageshack.us/img819/1939/thepiratesbandofmisfitse.png&lt;/a&gt;\n\n\n\n\n\n\n\n\n\n\n\n\n\n\n\n\n\n\n\ntrailer\n\n\n\n\n\n\n\n.","torrent":{"xt":"urn:btih:8fe74dcbb90d2d1c1ed758183645ca6c9c391918","amp;dn":"+The+Pirates+Band+of+Misfits+2012+Arabic+1080p+X264-alrmothe+%D9%85%D8%AF%D8%A8","amp;tr":["udp%3A%2F%2Ftracker.openbittorrent.com%3A80","udp%3A%2F%2Fopen.demonii.com%3A1337","udp%3A%2F%2Ftracker.coppersurfer.tk%3A6969","udp%3A%2F%2Fexodus.desync.com%3A6969"],"infoHash":"8fe74dcbb90d2d1c1ed758183645ca6c9c391918","infoHashBuffer":{"type":"Buffer","data":[143,231,77,203,185,13,45,28,30,215,88,24,54,69,202,108,156,57,25,24]},"announce":[],"urlList":[]}}